<?xml version="1.0" encoding="utf-8"?>
<!-- Generator: Adobe Illustrator 24.1.1, SVG Export Plug-In . SVG Version: 6.00 Build 0)  -->
<svg version="1.1" id="Layer_1" xmlns="http://www.w3.org/2000/svg" xmlns:xlink="http://www.w3.org/1999/xlink" x="0px" y="0px"
	 viewBox="0 0 512 512" style="enable-background:new 0 0 512 512;" xml:space="preserve">
<g>
	<path d="M256,0C115.2,0,0,115.2,0,256s115.2,256,256,256s256-115.2,256-256S396.8,0,256,0z M256,64c106.3,0,192,85.8,192,192
		s-85.8,192-192,192S64,362.3,64,256S149.8,64,256,64z M256,128c-70.4,0-128,57.6-128,128s57.6,128,128,128s128-57.6,128-128
		S326.4,128,256,128z M256,192c35.8,0,64,28.2,64,64s-28.2,64-64,64s-64-28.2-64-64S220.2,192,256,192z"/>
</g>
</svg>
